<svg xmlns="http://www.w3.org/2000/svg" viewBox="0 0 800 450" width="800" height="450" role="img" aria-label="Ideas para historias"><rect width="800" height="450" fill="#FFFFFF"/><path d="M404.1282444612589,150.60314892791212 C404.1282444612589,16.72543338802643 538.0059600011446,-31.95737226284109 659.7129741283134,-7.61596943740733 C793.590689668199,16.72543338802643 842.2734953190666,126.26174610247836 805.7613910809159,235.79805881693028 C769.2492868427653,333.1636701186653 562.3473628265783,333.1636701186653 477.15245293756016,284.4808644677978 C416.29894587397575,247.96876022964716 404.1282444612589,211.45665599149652 404.1282444612589,150.60314892791212 Z" fill="#FEF3C7"/><path d="M347.71375297848135,321.74181330017745 C347.71375297848135,266.3094835774973 403.1460827011615,246.15227276924998 453.5391097217798,256.23087817337364 C508.97143944446,266.3094835774973 529.1286502527073,311.6632078960538 514.0107421465218,357.0169322146103 C498.8928340403363,397.33135383110493 413.22468810528517,397.33135383110493 377.94956919085234,377.1741430228576 C352.7530556805432,362.0562349166721 347.71375297848135,346.9383268104866 347.71375297848135,321.74181330017745 Z" fill="#DBEAFE" opacity="0.7"/><path d="M34.96993872150779,58.00924332579598 H50.96993872150779 M42.96993872150779,50.00924332579598 V66.00924332579598" stroke="#7C3AED" stroke-width="3" stroke-linecap="round"/><circle cx="748.374485662207" cy="84.99694339232519" r="5.14810177963227" fill="#FBBF24"/><path d="M79.17445877566934,375.9128904582467 Q80.86665939419996,383.6218043871084 88.57557332306169,385.31400500563905 Q80.86665939419996,387.0062056241697 79.17445877566934,394.7151195530314 Q77.48225815713872,387.0062056241697 69.77334422827698,385.31400500563905 Q77.48225815713872,383.6218043871084 79.17445877566934,375.9128904582467 Z" fill="#0D9488"/><circle cx="745.4933442547917" cy="380.3761695860885" r="4.03076421096921" fill="#DDD6FE"/><path d="M378.1894204095006,32.46440833667293 H394.1894204095006 M386.1894204095006,24.464408336672932 V40.46440833667293" stroke="#0D9488" stroke-width="3" stroke-linecap="round"/><path d="M632.1956202667207,390.5542058318388 Q633.9412395630171,398.50647151496725 641.8935052461457,400.25209081126377 Q633.9412395630171,401.9977101075603 632.1956202667207,409.94997579068877 Q630.4500009704242,401.9977101075603 622.4977352872957,400.25209081126377 Q630.4500009704242,398.50647151496725 632.1956202667207,390.5542058318388 Z" fill="#0D9488"/><path d="M155.73308609239757,429.94706719648093 H171.73308609239757 M163.73308609239757,421.94706719648093 V437.94706719648093" stroke="#7C3AED" stroke-width="3" stroke-linecap="round"/><ellipse cx="400" cy="400" rx="280" ry="40" fill="#1E1B4B" opacity="0.07"/><g transform="translate(360,300)"><path d="M-200,-40 Q-100,-80 0,-40 Q100,-80 200,-40 V60 Q100,20 0,60 Q-100,20 -200,60 Z" fill="#FFFFFF" stroke="#7C3AED" stroke-width="5"/><path d="M0,-40 V60" stroke="#7C3AED" stroke-width="4"/><rect x="-170" y="-20" width="140" height="8" rx="4" fill="#CBD5E1"/><rect x="-170" y="-2" width="120" height="8" rx="4" fill="#CBD5E1"/><rect x="-170" y="16" width="130" height="8" rx="4" fill="#CBD5E1"/><rect x="30" y="-20" width="140" height="8" rx="4" fill="#CBD5E1"/><rect x="30" y="-2" width="120" height="8" rx="4" fill="#CBD5E1"/><rect x="30" y="16" width="130" height="8" rx="4" fill="#CBD5E1"/></g><g transform="translate(240,150)"><path d="M-40,40 V-10 L-24,-10 V-26 L-8,-26 V-10 H8 V-26 H24 V-10 L40,-10 V40 Z" fill="#DDD6FE" stroke="#7C3AED" stroke-width="3"/><rect x="-10" y="14" width="20" height="26" rx="8" fill="#7C3AED"/></g><g transform="translate(380,120)"><path d="M0,-60 Q24,-30 22,20 H-22 Q-24,-30 0,-60 Z" fill="#DC2626"/><circle cx="0" cy="-14" r="9" fill="#DBEAFE"/><path d="M-22,6 L-38,30 H-22 Z M22,6 L38,30 H22 Z" fill="#FBBF24"/><path d="M-12,22 Q0,52 12,22 Z" fill="#F97316"/></g><g transform="translate(510,160) rotate(-10)"><circle cx="0" cy="0" r="28" fill="#DBEAFE" stroke="#7C3AED" stroke-width="7"/><line x1="20.16" y1="20.16" x2="43.4" y2="43.4" stroke="#334155" stroke-width="12" stroke-linecap="round"/><path d="M-14,-5.6000000000000005 Q-12.6,-14 -4.2,-15.400000000000002" stroke="#FFFFFF" stroke-width="5" fill="none" stroke-linecap="round"/></g><g transform="translate(640,260) rotate(-60)"><rect x="-80" y="-11" width="130" height="22" rx="3" fill="#FBBF24"/><rect x="-96" y="-11" width="20" height="22" rx="5" fill="#EC4899"/><path d="M50,-11 L80,0 L50,11 Z" fill="#FDE68A"/><path d="M70,-4 L80,0 L70,4 Z" fill="#334155"/></g><g transform="translate(650,110)"><path d="M0,-18 Q3.2399999999999998,-3.2399999999999998 18,0 Q3.2399999999999998,3.2399999999999998 0,18 Q-3.2399999999999998,3.2399999999999998 -18,0 Q-3.2399999999999998,-3.2399999999999998 0,-18 Z" fill="#FBBF24"/></g></svg>