<svg xmlns="http://www.w3.org/2000/svg" viewBox="0 0 800 450" width="800" height="450">
  <defs>
    <linearGradient id="g" x1="0%" y1="0%" x2="100%" y2="100%">
      <stop offset="0%" stop-color="#EDE9FE"/>
      <stop offset="100%" stop-color="#DBEAFE"/>
    </linearGradient>
  </defs>
  <rect width="800" height="450" fill="#FFFFFF"/>
  <rect x="0" y="0" width="800" height="450" fill="url(#g)" opacity="0.5"/>

  <g transform="translate(280,225)">
    <rect x="-130" y="-130" width="260" height="260" rx="18" fill="#FFFFFF" stroke="#7C3AED" stroke-width="3"/>
    <g fill="#1E293B">
      <rect x="-110" y="-110" width="54" height="54" fill="none" stroke="#1E293B" stroke-width="9"/>
      <rect x="-96" y="-96" width="26" height="26"/>
      <rect x="56" y="-110" width="54" height="54" fill="none" stroke="#1E293B" stroke-width="9"/>
      <rect x="70" y="-96" width="26" height="26"/>
      <rect x="-110" y="56" width="54" height="54" fill="none" stroke="#1E293B" stroke-width="9"/>
      <rect x="-96" y="70" width="26" height="26"/>
      <rect x="-30" y="-110" width="14" height="14"/>
      <rect x="0" y="-110" width="14" height="14"/>
      <rect x="-30" y="-80" width="14" height="14"/>
      <rect x="20" y="-80" width="14" height="14"/>
      <rect x="-10" y="-50" width="14" height="14"/>
      <rect x="30" y="-50" width="14" height="14"/>
      <rect x="-30" y="-20" width="14" height="14"/>
      <rect x="10" y="-20" width="14" height="14"/>
      <rect x="60" y="-20" width="14" height="14"/>
      <rect x="-10" y="10" width="14" height="14"/>
      <rect x="30" y="20" width="14" height="14"/>
      <rect x="60" y="40" width="14" height="14"/>
      <rect x="-30" y="40" width="14" height="14"/>
      <rect x="10" y="70" width="14" height="14"/>
      <rect x="40" y="90" width="14" height="14"/>
      <rect x="80" y="60" width="14" height="14"/>
    </g>
  </g>

  <g transform="translate(560,225) rotate(-6)">
    <rect x="-64" y="-130" width="128" height="260" rx="26" fill="#1E293B"/>
    <rect x="-52" y="-110" width="104" height="220" rx="8" fill="#FFFFFF"/>
    <rect x="-36" y="-84" width="72" height="72" rx="8" fill="none" stroke="#7C3AED" stroke-width="5"/>
    <path d="M-36,-60 L36,-60" stroke="#7C3AED" stroke-width="3" stroke-dasharray="6 5" opacity="0.7"/>
  </g>
  <path d="M180,225 Q360,150 450,225" stroke="#2563EB" stroke-width="3" fill="none" stroke-dasharray="5 5" opacity="0.6"/>

  <g transform="translate(400,80)">
    <rect x="-30" y="-10" width="34" height="20" rx="10" fill="none" stroke="#2563EB" stroke-width="6"/>
    <rect x="-4" y="-10" width="34" height="20" rx="10" fill="none" stroke="#7C3AED" stroke-width="6"/>
  </g>

  <g transform="translate(280,400)">
    <line x1="0" y1="-30" x2="0" y2="10" stroke="#7C3AED" stroke-width="7" stroke-linecap="round"/>
    <path d="M-16,-6 L0,12 L16,-6" fill="none" stroke="#7C3AED" stroke-width="7" stroke-linecap="round" stroke-linejoin="round"/>
    <rect x="-24" y="20" width="48" height="8" rx="4" fill="#7C3AED"/>
  </g>
</svg>
