<svg xmlns="http://www.w3.org/2000/svg" viewBox="0 0 800 450" width="800" height="450">
  <rect width="800" height="450" fill="#FFFFFF"/>

  <g stroke="#DBEAFE" stroke-width="2">
    <line x1="60" y1="60" x2="60" y2="390"/>
    <line x1="60" y1="390" x2="740" y2="390"/>
  </g>
  <path d="M60,300 C150,150 250,450 340,300 C430,150 530,450 620,300 C660,230 700,260 740,300" stroke="#2563EB" stroke-width="4" fill="none" opacity="0.5"/>

  <g stroke="#7C3AED" stroke-width="6" stroke-linecap="round" fill="none" opacity="0.85">
    <path d="M580,90 h40 M588,90 v34 M612,90 v34"/>
    <path d="M120,310 l8,16 14,-38 h26"/>
  </g>
  <g transform="translate(660,340)" stroke="#1E3A8A" stroke-width="5" stroke-linecap="round" fill="none">
    <path d="M-14,-10 L14,14 M14,-10 L-14,14"/>
    <rect x="12" y="-30" width="14" height="14" rx="3" fill="#1E3A8A" stroke="none"/>
  </g>

  <g transform="translate(400,250)">
    <rect x="-150" y="-140" width="300" height="280" rx="20" fill="#1E293B"/>
    <rect x="-130" y="-118" width="260" height="60" rx="10" fill="#0F172A"/>
    <path d="M-110,-88 C-90,-100 -70,-76 -50,-88 C-30,-100 -10,-76 10,-88" stroke="#60A5FA" stroke-width="3" fill="none" opacity="0.8"/>

    <g fill="#334155">
      <rect x="-130" y="-40" width="56" height="34" rx="8"/>
      <rect x="-66" y="-40" width="56" height="34" rx="8"/>
      <rect x="-2" y="-40" width="56" height="34" rx="8"/>
      <rect x="62" y="-40" width="56" height="34" rx="8"/>
      <rect x="-130" y="2" width="56" height="34" rx="8"/>
      <rect x="-66" y="2" width="56" height="34" rx="8"/>
      <rect x="-2" y="2" width="56" height="34" rx="8"/>
      <rect x="62" y="2" width="56" height="34" rx="8" fill="#7C3AED"/>
      <rect x="-130" y="44" width="56" height="34" rx="8"/>
      <rect x="-66" y="44" width="56" height="34" rx="8"/>
      <rect x="-2" y="44" width="56" height="34" rx="8"/>
      <rect x="62" y="44" width="56" height="34" rx="8" fill="#2563EB"/>
      <rect x="-130" y="86" width="120" height="34" rx="8"/>
      <rect x="-2" y="86" width="56" height="34" rx="8"/>
      <rect x="62" y="86" width="56" height="34" rx="8" fill="#7C3AED"/>
    </g>
  </g>
</svg>
