<svg xmlns="http://www.w3.org/2000/svg" viewBox="0 0 800 450" width="800" height="450" role="img" aria-label="Generador de favicon"><rect width="800" height="450" fill="#FFFFFF"/><path d="M127.11020619468763,317.9628854431212 C127.11020619468763,181.35959649970755 263.7134951381013,131.68567324755713 387.8983032684773,156.52263487363234 C524.501592211891,181.35959649970755 574.1755154640414,293.125923817046 536.9200730249286,404.8922511343844 C499.66463058581576,504.24009763868526 288.5504567641765,504.24009763868526 201.62109107291326,454.56617438653484 C139.52868700772524,417.310731947422 127.11020619468763,380.0552895083092 127.11020619468763,317.9628854431212 Z" fill="#EDE9FE"/><path d="M497.7455918560736,323.19544499740005 C497.7455918560736,258.92970491060987 562.0113319428638,235.5603448790498 620.4347320217639,247.24502489482984 C684.7004721085541,258.92970491060987 708.0698321401142,311.51076498162 690.5428121164441,364.09182505263016 C673.0157920927741,410.8305451157503 573.6960119586438,410.8305451157503 532.7996319034137,387.4611850841902 C503.5879318639636,369.9341650605202 497.7455918560736,352.4071450368501 497.7455918560736,323.19544499740005 Z" fill="#FEF3C7" opacity="0.7"/><path d="M58.55561766773462,50.4240473669488 Q60.16106096833479,57.73773351412732 67.47474711551331,59.343176814727485 Q60.16106096833479,60.94862011532765 58.55561766773462,68.26230626250617 Q56.95017436713446,60.94862011532765 49.636488219955936,59.343176814727485 Q56.95017436713446,57.73773351412732 58.55561766773462,50.4240473669488 Z" fill="#FBBF24"/><circle cx="751.8396746274084" cy="64.99034434556961" r="4.113303028978407" fill="#FBBF24"/><path d="M55.14581637457013,388.59845820069313 Q56.65505429798737,395.4738754073717 63.53047150466591,396.9831133307889 Q56.65505429798737,398.49235125420614 55.14581637457013,405.3677684608847 Q53.63657845115289,398.49235125420614 46.76116124447435,396.9831133307889 Q53.63657845115289,395.4738754073717 55.14581637457013,388.59845820069313 Z" fill="#0D9488"/><path d="M747.8250470757484,373.3730638010893 Q749.8278694353206,382.49703232802915 758.9518379622605,384.4998546876013 Q749.8278694353206,386.5026770471735 747.8250470757484,395.62664557411335 Q745.8222247161763,386.5026770471735 736.6982561892364,384.4998546876013 Q745.8222247161763,382.49703232802915 747.8250470757484,373.3730638010893 Z" fill="#FBBF24"/><circle cx="383.4288455359638" cy="41.641669671516865" r="7.51755450014025" fill="#FBBF24"/><path d="M626.0512729622424,398.4872855199501 H642.0512729622424 M634.0512729622424,390.4872855199501 V406.4872855199501" stroke="#EC4899" stroke-width="3" stroke-linecap="round"/><path d="M188.56094705872238,401.29814096796326 Q190.5010018616123,410.1361684033507 199.3390292969998,412.0762232062407 Q190.5010018616123,414.01627800913064 188.56094705872238,422.8543054445181 Q186.62089225583244,414.01627800913064 177.78286482044496,412.0762232062407 Q186.62089225583244,410.1361684033507 188.56094705872238,401.29814096796326 Z" fill="#FBBF24"/><ellipse cx="400" cy="400" rx="300" ry="42.857142857142854" fill="#1E1B4B" opacity="0.07"/><g transform="translate(220,230)"><rect x="-104" y="-104" width="208" height="208" rx="16" fill="#FFFFFF" stroke="#CBD5E1" stroke-width="3"/><rect x="-96" y="-96" width="22" height="22" rx="3" fill="#EDE9FE"/><rect x="-72" y="-96" width="22" height="22" rx="3" fill="#7C3AED"/><rect x="-48" y="-96" width="22" height="22" rx="3" fill="#7C3AED"/><rect x="-24" y="-96" width="22" height="22" rx="3" fill="#7C3AED"/><rect x="0" y="-96" width="22" height="22" rx="3" fill="#7C3AED"/><rect x="24" y="-96" width="22" height="22" rx="3" fill="#7C3AED"/><rect x="48" y="-96" width="22" height="22" rx="3" fill="#7C3AED"/><rect x="72" y="-96" width="22" height="22" rx="3" fill="#EDE9FE"/><rect x="-96" y="-72" width="22" height="22" rx="3" fill="#EDE9FE"/><rect x="-72" y="-72" width="22" height="22" rx="3" fill="#7C3AED"/><rect x="-48" y="-72" width="22" height="22" rx="3" fill="#7C3AED"/><rect x="-24" y="-72" width="22" height="22" rx="3" fill="#7C3AED"/><rect x="0" y="-72" width="22" height="22" rx="3" fill="#7C3AED"/><rect x="24" y="-72" width="22" height="22" rx="3" fill="#7C3AED"/><rect x="48" y="-72" width="22" height="22" rx="3" fill="#7C3AED"/><rect x="72" y="-72" width="22" height="22" rx="3" fill="#EDE9FE"/><rect x="-96" y="-48" width="22" height="22" rx="3" fill="#EDE9FE"/><rect x="-72" y="-48" width="22" height="22" rx="3" fill="#7C3AED"/><rect x="-48" y="-48" width="22" height="22" rx="3" fill="#7C3AED"/><rect x="-24" y="-48" width="22" height="22" rx="3" fill="#EDE9FE"/><rect x="0" y="-48" width="22" height="22" rx="3" fill="#EDE9FE"/><rect x="24" y="-48" width="22" height="22" rx="3" fill="#EDE9FE"/><rect x="48" y="-48" width="22" height="22" rx="3" fill="#EDE9FE"/><rect x="72" y="-48" width="22" height="22" rx="3" fill="#EDE9FE"/><rect x="-96" y="-24" width="22" height="22" rx="3" fill="#EDE9FE"/><rect x="-72" y="-24" width="22" height="22" rx="3" fill="#7C3AED"/><rect x="-48" y="-24" width="22" height="22" rx="3" fill="#7C3AED"/><rect x="-24" y="-24" width="22" height="22" rx="3" fill="#7C3AED"/><rect x="0" y="-24" width="22" height="22" rx="3" fill="#7C3AED"/><rect x="24" y="-24" width="22" height="22" rx="3" fill="#7C3AED"/><rect x="48" y="-24" width="22" height="22" rx="3" fill="#EDE9FE"/><rect x="72" y="-24" width="22" height="22" rx="3" fill="#EDE9FE"/><rect x="-96" y="0" width="22" height="22" rx="3" fill="#EDE9FE"/><rect x="-72" y="0" width="22" height="22" rx="3" fill="#7C3AED"/><rect x="-48" y="0" width="22" height="22" rx="3" fill="#7C3AED"/><rect x="-24" y="0" width="22" height="22" rx="3" fill="#7C3AED"/><rect x="0" y="0" width="22" height="22" rx="3" fill="#7C3AED"/><rect x="24" y="0" width="22" height="22" rx="3" fill="#7C3AED"/><rect x="48" y="0" width="22" height="22" rx="3" fill="#EDE9FE"/><rect x="72" y="0" width="22" height="22" rx="3" fill="#EDE9FE"/><rect x="-96" y="24" width="22" height="22" rx="3" fill="#EDE9FE"/><rect x="-72" y="24" width="22" height="22" rx="3" fill="#7C3AED"/><rect x="-48" y="24" width="22" height="22" rx="3" fill="#7C3AED"/><rect x="-24" y="24" width="22" height="22" rx="3" fill="#EDE9FE"/><rect x="0" y="24" width="22" height="22" rx="3" fill="#EDE9FE"/><rect x="24" y="24" width="22" height="22" rx="3" fill="#EDE9FE"/><rect x="48" y="24" width="22" height="22" rx="3" fill="#EDE9FE"/><rect x="72" y="24" width="22" height="22" rx="3" fill="#EDE9FE"/><rect x="-96" y="48" width="22" height="22" rx="3" fill="#EDE9FE"/><rect x="-72" y="48" width="22" height="22" rx="3" fill="#7C3AED"/><rect x="-48" y="48" width="22" height="22" rx="3" fill="#7C3AED"/><rect x="-24" y="48" width="22" height="22" rx="3" fill="#EDE9FE"/><rect x="0" y="48" width="22" height="22" rx="3" fill="#EDE9FE"/><rect x="24" y="48" width="22" height="22" rx="3" fill="#EDE9FE"/><rect x="48" y="48" width="22" height="22" rx="3" fill="#EDE9FE"/><rect x="72" y="48" width="22" height="22" rx="3" fill="#EDE9FE"/><rect x="-96" y="72" width="22" height="22" rx="3" fill="#EDE9FE"/><rect x="-72" y="72" width="22" height="22" rx="3" fill="#7C3AED"/><rect x="-48" y="72" width="22" height="22" rx="3" fill="#7C3AED"/><rect x="-24" y="72" width="22" height="22" rx="3" fill="#EDE9FE"/><rect x="0" y="72" width="22" height="22" rx="3" fill="#EDE9FE"/><rect x="24" y="72" width="22" height="22" rx="3" fill="#EDE9FE"/><rect x="48" y="72" width="22" height="22" rx="3" fill="#EDE9FE"/><rect x="72" y="72" width="22" height="22" rx="3" fill="#EDE9FE"/></g><g transform="translate(530,150)"><path d="M-140,30 V-10 Q-140,-30 -120,-30 H80 Q100,-30 106,-10 L118,30 Z" fill="#FFFFFF" stroke="#7C3AED" stroke-width="3"/><rect x="-124" y="-14" width="26" height="26" rx="6" fill="#7C3AED"/><text x="-111" y="6" font-family="Arial, Helvetica, sans-serif" font-size="18" font-weight="700" fill="#FFFFFF" text-anchor="middle">F</text><rect x="-86" y="-4" width="120" height="8" rx="4" fill="#CBD5E1"/><text x="92" y="6" font-family="Arial, Helvetica, sans-serif" font-size="18" font-weight="700" fill="#64748B" text-anchor="middle">×</text></g><g transform="translate(530,290)"><g transform="translate(-90,0)"><rect x="-12" y="-12" width="24" height="24" rx="6" fill="#7C3AED"/><text x="0" y="36" font-family="Arial, Helvetica, sans-serif" font-size="14" font-weight="700" fill="#64748B" text-anchor="middle">16px</text></g><g transform="translate(0,0)"><rect x="-20" y="-20" width="40" height="40" rx="6" fill="#7C3AED"/><text x="0" y="44" font-family="Arial, Helvetica, sans-serif" font-size="14" font-weight="700" fill="#64748B" text-anchor="middle">32px</text></g><g transform="translate(90,0)"><rect x="-28" y="-28" width="56" height="56" rx="6" fill="#7C3AED"/><text x="0" y="52" font-family="Arial, Helvetica, sans-serif" font-size="14" font-weight="700" fill="#64748B" text-anchor="middle">48px</text></g></g><g transform="translate(690,370)"><rect x="-50" y="-17" width="100" height="34" rx="17" fill="#D97706"/><text x="0" y="5.76" font-family="Arial, Helvetica, sans-serif" font-size="16" font-weight="700" fill="#FFFFFF" text-anchor="middle">.ico</text></g></svg>