<svg xmlns="http://www.w3.org/2000/svg" viewBox="0 0 800 450" width="800" height="450" role="img" aria-label="Decodificador JWT"><rect width="800" height="450" fill="#FFFFFF"/><path d="M14.363213284872472,208.31815849989653 C14.363213284872472,57.140841654501855 165.54053013026714,2.167271892540157 302.9744545351714,29.654056773521006 C454.15177138056606,57.140841654501855 509.12534114252776,180.83137361891568 467.8951638210565,304.5219055833295 C426.6649864995852,414.4690451072529 193.027315011248,414.4690451072529 96.82356792781502,359.4954753452912 C28.106605725362897,318.2652980238199 14.363213284872472,277.03512070234865 14.363213284872472,208.31815849989653 Z" fill="#EDE9FE"/><path d="M573.745857866481,298.9086154522374 C573.745857866481,248.79157286603004 623.8629004526883,230.5671937437728 669.4238482583314,239.67938330490142 C719.5408908445388,248.79157286603004 737.765269966796,289.7964258911088 724.0969856251031,330.8012789161876 C710.4287012834102,367.25003716070205 632.975090013817,367.25003716070205 601.0824265498668,349.0256580384448 C578.3019526470453,335.3573736967519 573.745857866481,321.68908935505897 573.745857866481,298.9086154522374 Z" fill="#DBEAFE" opacity="0.7"/><path d="M73.08779507875443,53.346152051351964 Q74.45669102677144,59.582233592318374 80.69277256773785,60.95112954033539 Q74.45669102677144,62.3200254883524 73.08779507875443,68.55610702931881 Q71.71889913073741,62.3200254883524 65.482817589771,60.95112954033539 Q71.71889913073741,59.582233592318374 73.08779507875443,53.346152051351964 Z" fill="#FBBF24"/><circle cx="749.2874262295663" cy="61.03875657077879" r="4.557882658205926" fill="#FBBF24"/><path d="M47.987240225076675,391.6463621542789 H63.987240225076675 M55.987240225076675,383.6463621542789 V399.6463621542789" stroke="#EC4899" stroke-width="3" stroke-linecap="round"/><circle cx="735.0251573044807" cy="381.9816746073775" r="5.804728005081415" fill="#DDD6FE"/><path d="M414.3898059986532,15.374544038902968 Q416.1524527433701,23.404379209280012 424.18228791374713,25.167025953996927 Q416.1524527433701,26.92967269871384 414.3898059986532,34.959507869090885 Q412.62715925393627,26.92967269871384 404.5973240835592,25.167025953996927 Q412.62715925393627,23.404379209280012 414.3898059986532,15.374544038902968 Z" fill="#7C3AED"/><path d="M615.1710117142648,386.9628831867594 Q616.8396144598862,394.56429569459056 624.4410269677173,396.232898440212 Q616.8396144598862,397.90150118583347 615.1710117142648,405.5029136936646 Q613.5024089686433,397.90150118583347 605.9009964608122,396.232898440212 Q613.5024089686433,394.56429569459056 615.1710117142648,386.9628831867594 Z" fill="#0D9488"/><path d="M173.78995634429157,420.5726665793918 H189.78995634429157 M181.78995634429157,412.5726665793918 V428.5726665793918" stroke="#7C3AED" stroke-width="3" stroke-linecap="round"/><ellipse cx="400" cy="400" rx="280" ry="40" fill="#1E1B4B" opacity="0.07"/><g transform="translate(400,120)"><rect x="-300" y="-28" width="600" height="56" rx="14" fill="#1E1B4B"/><text x="-200" y="8" font-family="Courier New, monospace" font-size="22" font-weight="700" fill="#FCA5A5" text-anchor="middle">eyJhbGci</text><text x="-110" y="8" font-family="Courier New, monospace" font-size="22" font-weight="700" fill="#FFFFFF" text-anchor="middle">.</text><text x="0" y="8" font-family="Courier New, monospace" font-size="22" font-weight="700" fill="#C4B5FD" text-anchor="middle">eyJzdWIi</text><text x="110" y="8" font-family="Courier New, monospace" font-size="22" font-weight="700" fill="#FFFFFF" text-anchor="middle">.</text><text x="200" y="8" font-family="Courier New, monospace" font-size="22" font-weight="700" fill="#7DD3FC" text-anchor="middle">mntREIYu</text></g><g transform="translate(160,270)"><rect x="-100" y="-70" width="200" height="140" rx="16" fill="#FFFFFF" stroke="#DC2626" stroke-width="4"/><rect x="-100" y="-70" width="200" height="34" rx="16" fill="#DC2626"/><rect x="-100" y="-48" width="200" height="12" rx="0" fill="#DC2626"/><text x="0" y="-46" font-family="Arial, Helvetica, sans-serif" font-size="15" font-weight="700" fill="#FFFFFF" text-anchor="middle">HEADER</text><text x="0" y="12" font-family="Courier New, monospace" font-size="16" font-weight="700" fill="#334155" text-anchor="middle">"alg":"HS256"</text><rect x="-70" y="30" width="140" height="8" rx="4" fill="#CBD5E1"/><rect x="-70" y="46" width="100" height="8" rx="4" fill="#CBD5E1"/></g><g transform="translate(400,270)"><rect x="-100" y="-70" width="200" height="140" rx="16" fill="#FFFFFF" stroke="#7C3AED" stroke-width="4"/><rect x="-100" y="-70" width="200" height="34" rx="16" fill="#7C3AED"/><rect x="-100" y="-48" width="200" height="12" rx="0" fill="#7C3AED"/><text x="0" y="-46" font-family="Arial, Helvetica, sans-serif" font-size="15" font-weight="700" fill="#FFFFFF" text-anchor="middle">PAYLOAD</text><text x="0" y="12" font-family="Courier New, monospace" font-size="16" font-weight="700" fill="#334155" text-anchor="middle">"sub":"1234"</text><rect x="-70" y="30" width="140" height="8" rx="4" fill="#CBD5E1"/><rect x="-70" y="46" width="100" height="8" rx="4" fill="#CBD5E1"/></g><g transform="translate(640,270)"><rect x="-100" y="-70" width="200" height="140" rx="16" fill="#FFFFFF" stroke="#2563EB" stroke-width="4"/><rect x="-100" y="-70" width="200" height="34" rx="16" fill="#2563EB"/><rect x="-100" y="-48" width="200" height="12" rx="0" fill="#2563EB"/><text x="0" y="-46" font-family="Arial, Helvetica, sans-serif" font-size="15" font-weight="700" fill="#FFFFFF" text-anchor="middle">SIGNATURE</text><text x="0" y="12" font-family="Courier New, monospace" font-size="16" font-weight="700" fill="#334155" text-anchor="middle">verificada</text><g transform="translate(0,44)"><circle cx="0" cy="0" r="16" fill="#059669"/><path d="M-6.4,0 L-1.6,5.12 L7.2,-5.12" fill="none" stroke="#FFFFFF" stroke-width="3.2" stroke-linecap="round" stroke-linejoin="round"/></g></g></svg>