<svg xmlns="http://www.w3.org/2000/svg" viewBox="0 0 800 450" width="800" height="450" role="img" aria-label="Generador de apodos"><rect width="800" height="450" fill="#FFFFFF"/><path d="M-24.2161768190563,255.46739714220166 C-24.2161768190563,105.37541594915092 125.87580437399447,50.79651369713247 262.3230600040406,78.0859648231417 C412.41504119709134,105.37541594915092 466.9939434491098,228.17794601619244 426.05976676009595,350.98047608323395 C385.1255900710821,460.13828058727086 153.1652555000037,460.13828058727086 57.652176558971405,405.5593783352524 C-10.57145125605166,364.62520164623857 -24.2161768190563,323.6910249572247 -24.2161768190563,255.46739714220166 Z" fill="#FEF3C7"/><path d="M579.9197731125169,301.37853347696364 C579.9197731125169,239.62729497114196 641.6710116183385,217.17229915084317 697.8085011690855,228.39979706099257 C759.5597396749072,239.62729497114196 782.014735495206,290.15103556681424 765.1734886299819,340.6747761624865 C748.3322417647578,385.5847678030841 652.8985095284879,385.5847678030841 613.602266842965,363.1297719827853 C585.5335220675915,346.2885251175612 579.9197731125169,329.4472782523371 579.9197731125169,301.37853347696364 Z" fill="#FCE7F3" opacity="0.7"/><circle cx="54.27299537695944" cy="60.12032576138154" r="4.7808532770723104" fill="#DDD6FE"/><path d="M740.6457946058363,59.37620857032016 H756.6457946058363 M748.6457946058363,51.37620857032016 V67.37620857032016" stroke="#0D9488" stroke-width="3" stroke-linecap="round"/><path d="M65.33423994481564,393.7871750607155 H81.33423994481564 M73.33423994481564,385.7871750607155 V401.7871750607155" stroke="#EC4899" stroke-width="3" stroke-linecap="round"/><path d="M724.442180795595,387.7289229359012 Q726.597752812379,397.5487510123616 736.4175808888394,399.7043230291456 Q726.597752812379,401.8598950459296 724.442180795595,411.67972312239 Q722.2866087788111,401.8598950459296 712.4667807023507,399.7043230291456 Q722.2866087788111,397.5487510123616 724.442180795595,387.7289229359012 Z" fill="#FBBF24"/><path d="M411.35040079057217,33.63215198041871 H427.35040079057217 M419.35040079057217,25.632151980418712 V41.63215198041871" stroke="#0D9488" stroke-width="3" stroke-linecap="round"/><circle cx="635.5960975028574" cy="415.9331310610287" r="7.476155930198729" fill="#DBEAFE"/><circle cx="191.40062163583934" cy="413.26591704273596" r="4.02884575817734" fill="#DDD6FE"/><ellipse cx="260" cy="400" rx="150" ry="21.428571428571427" fill="#1E1B4B" opacity="0.07"/><g transform="translate(250,310) scale(1.05)"><g transform="scale(1)"><path d="M-30,-58 Q-58,-90 -52,-120" stroke="#F5D0B5" stroke-width="13" stroke-linecap="round" fill="none"/><path d="M30,-58 Q44,-20 36,6" stroke="#F5D0B5" stroke-width="13" stroke-linecap="round" fill="none"/><path d="M-32,-70 Q0,-84 32,-70 L36,10 L-36,10 Z" fill="#7C3AED"/><rect x="-30" y="8" width="26" height="70" rx="10" fill="#334155"/><rect x="4" y="8" width="26" height="70" rx="10" fill="#334155"/><circle cx="0" cy="-104" r="26" fill="#F5D0B5"/><path d="M-27,-106 Q-26,-138 2,-136 Q28,-136 27,-104 Q18,-122 -4,-120 Q-18,-118 -27,-106 Z" fill="#B45309"/><circle cx="-9" cy="-102" r="3" fill="#334155"/><circle cx="9" cy="-102" r="3" fill="#334155"/><path d="M-8,-92 Q0,-86 8,-92" fill="none" stroke="#334155" stroke-width="2.5" stroke-linecap="round"/></g></g><g transform="translate(250,250)"><rect x="-44" y="-28" width="88" height="56" rx="8" fill="#DC2626"/><rect x="-40" y="-6" width="80" height="30" rx="4" fill="#FFFFFF"/><text x="0" y="-12" font-family="Arial, Helvetica, sans-serif" font-size="11" font-weight="700" fill="#FFFFFF" text-anchor="middle">HOLA</text><text x="0" y="15" font-family="Arial, Helvetica, sans-serif" font-size="16" font-weight="700" fill="#334155" text-anchor="middle">Pepe</text></g><g transform="translate(520,130)"><rect x="-80" y="-28" width="160" height="56" rx="18" fill="#FFFFFF" stroke="#7C3AED" stroke-width="3"/><path d="M-56,26 l-10,22 l30,-22 Z" fill="#FFFFFF" stroke="#7C3AED" stroke-width="3" stroke-linejoin="round"/><rect x="-64" y="23" width="34" height="6" fill="#FFFFFF"/><text x="0" y="7.92" font-family="Arial, Helvetica, sans-serif" font-size="22" font-weight="700" fill="#334155" text-anchor="middle">Lupita</text></g><g transform="translate(610,220)"><rect x="-90" y="-28" width="180" height="56" rx="18" fill="#FFFFFF" stroke="#0D9488" stroke-width="3"/><path d="M-66,26 l-10,22 l30,-22 Z" fill="#FFFFFF" stroke="#0D9488" stroke-width="3" stroke-linejoin="round"/><rect x="-74" y="23" width="34" height="6" fill="#FFFFFF"/><text x="0" y="6.4799999999999995" font-family="Arial, Helvetica, sans-serif" font-size="18" font-weight="700" fill="#334155" text-anchor="middle">xXShadowXx</text></g><g transform="translate(540,310)"><rect x="-75" y="-28" width="150" height="56" rx="18" fill="#FFFFFF" stroke="#D97706" stroke-width="3"/><path d="M-51,26 l-10,22 l30,-22 Z" fill="#FFFFFF" stroke="#D97706" stroke-width="3" stroke-linejoin="round"/><rect x="-59" y="23" width="34" height="6" fill="#FFFFFF"/><text x="0" y="7.92" font-family="Arial, Helvetica, sans-serif" font-size="22" font-weight="700" fill="#334155" text-anchor="middle">Memo</text></g></svg>